<svg width="177" height="175" viewBox="0 0 177 175" fill="none" xmlns="http://www.w3.org/2000/svg">
<path d="M175.569 108.8C173.819 103.42 171.379 98.42 167.849 93.92C169.249 93.13 169.359 91.78 169.499 90.46C169.699 88.54 169.37 86.6301 169.27 84.72C168.89 77.69 167.579 70.87 164.479 64.48C164.019 63.5401 163.549 62.61 163.079 61.68C166.089 63.53 168.899 65.51 171.439 67.85C171.909 68.28 172.359 68.85 173.089 68.43C173.909 67.95 173.549 67.24 173.329 66.59C172.749 64.86 172.13 63.16 171.28 61.54C167.34 54.04 163.23 46.66 157.01 40.71C157.46 40.45 157.73 40.77 158.03 40.89C159.53 41.5 161.02 42.15 162.52 42.77C163.08 43 163.67 43.12 164.17 42.62C164.71 42.08 164.41 41.52 164.13 41C163.829 40.43 163.52 39.87 163.15 39.35C157.49 31.66 151.11 24.66 143.43 18.92C141.59 17.55 139.559 16.49 137.239 15.22C137.829 15.17 138.05 15.13 138.27 15.13C140.04 15.12 141.819 15.13 143.589 15.12C144.029 15.12 144.519 15.15 144.689 14.61C144.859 14.08 144.469 13.8 144.109 13.53C143.879 13.35 143.62 13.2 143.38 13.04C133.529 6.33004 122.859 1.75004 110.879 0.600044C103.449 -0.109956 96.1395 0.160044 89.2094 3.34004C88.7694 3.54004 88.4295 3.56004 87.9795 3.36004C79.6595 -0.369957 70.9695 -0.279956 62.2195 1.13004C51.7095 2.82004 42.2795 7.20004 33.5495 13.18C33.2695 13.37 32.9495 13.55 32.7395 13.81C32.1495 14.51 32.3395 14.99 33.2395 15.11C33.7695 15.18 34.3195 15.13 34.8595 15.13C36.4295 15.13 37.9994 15.13 39.5694 15.13C38.7494 15.88 37.9195 16.3 37.1095 16.76C30.9695 20.22 26.1195 25.2 21.4095 30.31C18.4395 33.53 15.4795 36.78 13.2595 40.59C12.9095 41.2 12.3095 41.87 12.9695 42.6C13.5995 43.29 14.3395 42.91 15.0195 42.63C16.6795 41.94 18.3295 41.23 19.9895 40.52C19.3295 41.63 18.4095 42.42 17.6195 43.32C12.2895 49.41 8.36952 56.4 4.89952 63.66C4.38952 64.72 4.09943 65.8801 3.68943 66.98C3.47943 67.54 3.46951 68.0601 4.01951 68.41C4.59951 68.7801 5.04946 68.4501 5.46946 68.08C5.64946 67.92 5.80949 67.73 5.99949 67.56C8.48949 65.38 11.1595 63.42 13.9695 61.64C13.9895 61.9 13.9195 62.07 13.8395 62.22C8.91946 70.94 7.77952 80.51 7.64952 90.28C7.62952 91.69 7.90951 93.08 9.26951 93.96C5.46951 98.78 2.8795 104.11 1.2595 109.89C-1.4505 119.53 0.749473 127.77 8.47947 134.34C11.8095 137.17 15.6495 139.01 19.8395 140.09C21.1495 140.43 21.7894 141.05 22.1994 142.3C22.7194 143.93 23.4595 145.51 24.1595 147.07C28.0195 155.63 33.2995 162.93 42.0495 167.14C42.7795 167.49 43.4794 167.9 44.1894 168.28C43.2094 168.36 42.3495 168.63 41.4895 168.82C38.7195 169.43 35.8795 169.82 33.3395 171.2C32.7095 171.54 32.1395 171.99 32.2295 172.78C32.3195 173.59 32.8895 174.14 33.6395 174.33C34.5395 174.56 35.4795 174.72 36.3995 174.74C43.8895 174.87 51.3594 174.54 58.8294 174.13C60.0494 174.06 61.0395 173.65 61.7795 172.51C66.5795 165.08 73.6995 161.15 82.1095 159.24C84.5395 158.69 87.0094 159.1 89.4494 158.95C91.3394 158.83 93.2095 158.85 95.0195 159.26C103.44 161.12 110.569 165.06 115.369 172.49C116.139 173.68 117.179 174.08 118.449 174.15C125.779 174.54 133.099 174.85 140.439 174.77C141.479 174.76 142.509 174.67 143.499 174.36C144.24 174.13 144.829 173.64 144.939 172.82C145.049 172.02 144.489 171.57 143.859 171.22C143.129 170.81 142.379 170.47 141.569 170.24C138.769 169.45 135.95 168.76 132.77 168.38C133.42 168.04 133.79 167.84 134.18 167.65C141.05 164.28 146.49 159.43 150.15 152.62C152.04 149.1 153.87 145.57 155.17 141.79C155.48 140.89 155.96 140.43 156.88 140.23C158.57 139.87 160.189 139.28 161.76 138.58C173.14 133.5 180.159 122.86 175.569 108.8ZM14.2595 120.5C15.3795 120.3 15.7594 119.35 16.6994 118.55C16.7094 120.8 16.9595 122.84 17.2495 124.9C15.8695 123.72 14.9695 122.25 14.2595 120.5ZM159.68 125.32C160.04 122.87 160.509 120.86 160.319 118.57C161.369 119.26 161.679 120.37 162.859 120.48C162.109 122.27 161.23 123.74 159.68 125.32Z" fill="#4A4A4A"/>
<path d="M120.869 112.27C121.429 111.63 121.469 111.02 121.619 110.46C122.189 108.32 122.429 106.11 122.729 103.92C122.809 103.37 122.89 102.81 123.53 102.65C124.18 102.49 124.529 102.94 124.839 103.4C125.879 104.95 126.879 106.53 127.939 108.07C128.359 108.68 128.68 109.42 129.43 109.87C129.64 109.1 129.539 108.48 129.449 107.85C129.189 105.9 128.909 103.95 128.699 102C128.629 101.39 128.479 100.64 129.219 100.3C129.869 100 130.309 100.49 130.759 100.88C135.639 105.1 140.51 109.32 145.41 113.52C147.34 115.17 149.309 116.77 151.329 118.46C151.639 117.37 151.719 116.45 151.719 115.51C151.729 113.34 151.769 111.18 151.819 109.01C151.829 108.45 151.979 107.89 152.569 107.68C153.149 107.47 153.46 107.94 153.78 108.32C154.61 109.3 155.449 110.26 156.249 111.26C158.109 113.59 160.259 115.63 162.389 117.84C162.729 117.18 162.66 116.63 162.66 116.1C162.66 112.26 162.699 108.42 162.389 104.59C161.819 97.6001 161.059 90.6601 157.389 84.4401C157.029 83.8301 156.74 83.1101 157.42 82.5701C158.04 82.0801 158.63 82.5501 159.15 82.9301C161.91 84.9501 164.269 87.3801 166.479 89.9801C166.709 90.2501 166.81 90.7301 167.42 90.6501C167.57 87.9001 167.339 85.1601 167.119 82.4201C166.479 74.4501 164.499 66.9301 159.879 60.2501C159.659 59.9301 159.47 59.5801 159.3 59.2201C159.14 58.8801 159.169 58.5501 159.439 58.2601C159.759 57.9201 160.13 57.9101 160.52 58.1101C160.87 58.2901 161.2 58.5001 161.53 58.7201C164.44 60.6201 167.34 62.5201 170.27 64.4301C170.299 64.2901 170.369 64.1701 170.339 64.1101C169.609 62.6601 168.91 61.2001 168.139 59.7701C164.149 52.3701 159.829 45.2301 153.259 39.7501C153.039 39.5601 152.83 39.3401 152.66 39.1001C152.45 38.8101 152.33 38.4901 152.55 38.1401C152.76 37.8001 153.099 37.7201 153.449 37.7901C153.829 37.8601 154.209 37.9701 154.589 38.0901C156.949 38.8701 159.309 39.6601 161.839 40.5101C161.619 40.1301 161.499 39.8801 161.339 39.6601C159.259 36.7201 156.89 34.0201 154.43 31.4001C148.63 25.2201 142.38 19.6401 134.4 16.3601C134.17 16.2701 133.959 16.1401 133.749 16.0201C133.289 15.7501 132.999 15.3801 133.099 14.8101C133.199 14.2201 133.68 14.0301 134.18 13.9801C135.01 13.9101 135.849 13.9301 136.689 13.8901C138.449 13.8001 140.209 13.7001 142.239 13.6001C141.769 13.2701 141.579 13.1201 141.369 12.9801C130.759 5.97009 119.2 1.92009 106.4 1.71009C100.45 1.61009 94.6195 2.31009 89.1095 4.74009C88.6195 4.95009 88.3295 4.86009 87.9095 4.68009C84.1795 3.05009 80.2494 2.16009 76.2094 1.88009C64.8294 1.07009 54.0195 3.25009 43.8095 8.34009C40.7995 9.84009 37.8695 11.5001 35.1495 13.7001C37.4595 13.9401 39.7395 13.9301 42.0195 13.9501C42.7795 13.9601 43.7595 13.7701 43.9795 14.7901C44.2195 15.9001 43.1894 16.1501 42.4594 16.4701C40.8794 17.1601 39.3294 17.9101 37.8294 18.7601C31.0494 22.6201 25.6395 28.0601 20.4995 33.7901C18.6395 35.8601 16.7895 37.9601 15.3095 40.3701C15.7595 40.5901 16.0495 40.3101 16.3495 40.2101C18.4395 39.5101 20.5195 38.7701 22.6195 38.0701C23.2495 37.8601 24.0395 37.4101 24.4995 38.1501C25.0295 39.0101 24.1295 39.4501 23.6295 39.9401C22.8195 40.7301 21.9195 41.4301 21.1295 42.2401C14.8695 48.5501 10.6795 56.2401 6.74948 64.0901C6.71948 64.1601 6.76953 64.2701 6.79953 64.4801C7.18953 64.2301 7.54949 64.0101 7.88949 63.7901C10.5995 62.0101 13.3095 60.2201 16.0295 58.4401C16.5195 58.1201 17.0495 57.6901 17.6095 58.2601C18.1695 58.8201 17.7494 59.3701 17.4394 59.8601C16.4294 61.4301 15.3595 62.9501 14.5395 64.6501C11.3595 71.2401 10.0394 78.2501 9.70944 85.4901C9.62944 87.2201 9.39951 88.9701 9.77951 90.9201C10.2395 90.4001 10.5695 90.0501 10.8795 89.6801C12.8295 87.3801 14.9094 85.2201 17.3294 83.4101C18.0294 82.8901 18.7795 81.8101 19.7295 82.6701C20.5495 83.4201 19.7594 84.3101 19.3394 85.0701C18.3194 86.9301 17.4395 88.8501 16.8695 90.9001C14.4695 99.5401 14.2894 108.38 14.4494 117.26C14.4494 117.42 14.5894 117.58 14.6894 117.78C17.7994 114.86 20.5095 111.67 23.1795 108.46C23.5095 108.06 23.8095 107.47 24.4694 107.68C25.1395 107.9 25.2395 108.53 25.2495 109.13C25.2895 111.35 25.3194 113.56 25.3394 115.78C25.3494 116.65 25.4195 117.49 25.7895 118.48C29.3095 115.48 32.7095 112.58 36.1095 109.67C39.5795 106.69 43.0495 103.7 46.5095 100.7C46.9095 100.35 47.3094 100.1 47.8294 100.29C48.4094 100.5 48.4095 101.04 48.3895 101.53C48.3695 102.07 48.2794 102.61 48.2194 103.14C47.9694 105.34 47.4795 107.52 47.5595 109.89C48.3495 109.46 48.5994 108.85 48.9494 108.33C50.0894 106.66 51.1895 104.97 52.3095 103.3C52.5895 102.88 52.9495 102.51 53.5195 102.64C54.0895 102.77 54.2594 103.22 54.3194 103.75C54.3994 104.38 54.4794 105.02 54.5794 105.65C54.9094 107.85 55.1594 110.08 56.0794 112.28C56.4594 111.98 56.6895 111.81 56.9095 111.62C60.3995 108.51 63.8895 105.39 67.3895 102.29C67.9795 101.77 68.5994 101.1 69.4594 101.54C70.2794 101.96 70.2795 102.86 70.2295 103.63C70.1195 105.35 69.9395 107.06 69.7695 108.77C69.5195 111.38 69.0295 113.97 69.1395 116.66C70.4595 114.7 71.6295 112.69 72.7895 110.67C73.6395 109.18 74.4694 107.67 75.3194 106.17C75.5494 105.76 75.8995 105.48 76.4095 105.61C76.9395 105.75 77.0495 106.18 77.0395 106.65C77.0095 107.39 76.9695 108.12 76.8895 108.86C76.7695 109.94 76.5995 111.02 76.4195 112.27C77.1395 111.82 77.3794 111.27 77.7094 110.79C78.8994 109.04 80.0595 107.27 81.2395 105.51C81.5495 105.05 81.9294 104.63 82.5694 104.81C83.2494 105 83.2295 105.58 83.2395 106.13C83.2495 108.49 83.2095 110.86 83.2895 113.22C83.3295 114.51 83.3195 115.85 84.0894 117.17C86.0594 115.81 87.3395 113.99 88.5195 112.07C89.7895 113.97 91.0195 115.87 92.9795 117.14C93.4395 116.51 93.5094 115.99 93.5894 115.45C94.0394 112.46 93.6994 109.45 93.8394 106.45C93.8694 105.85 93.6495 105.08 94.4895 104.83C95.2795 104.59 95.6395 105.21 95.9895 105.74C96.9795 107.21 97.9294 108.7 98.9394 110.16C99.4194 110.85 99.7795 111.66 100.629 112.26C100.509 110.28 99.9695 108.51 100.03 106.68C100.05 106.22 100.109 105.78 100.639 105.62C101.149 105.47 101.499 105.75 101.739 106.15C102.269 107.04 102.77 107.94 103.28 108.84C104.77 111.47 106.259 114.1 107.759 116.72C108.059 116.32 108.09 116 108.05 115.69C107.8 113.35 107.52 111 107.27 108.66C107.07 106.76 106.679 104.86 106.879 102.93C107.039 101.38 107.989 100.97 109.199 101.91C110.129 102.63 110.989 103.45 111.869 104.24C114.859 106.88 117.819 109.54 120.869 112.27Z" fill="#FC846A"/>
<path d="M52.5995 105.58C52.0795 106.43 51.6995 107.04 51.3395 107.65C50.5295 109 49.7995 110.4 48.7095 111.57C48.1695 112.15 47.5795 112.76 46.6895 112.48C45.7695 112.19 45.7296 111.36 45.6296 110.56C45.2996 108.11 45.7695 105.69 45.9595 103.21C45.2495 103.37 44.9196 103.9 44.4996 104.28C38.9596 109.31 33.5996 114.55 27.9096 119.41C26.9996 120.18 26.1196 121.44 24.7496 120.8C23.4596 120.2 23.6596 118.74 23.4996 117.54C23.1996 115.38 23.4195 113.2 23.3195 110.67C21.9795 112.67 20.8796 114.34 19.7596 116C19.5296 116.35 19.4696 116.69 19.5296 117.11C19.9896 120.37 20.1196 123.66 20.4996 126.93C20.6496 128.22 21.1395 128.87 22.1095 129.44C25.7995 131.58 29.8896 132.71 33.9196 133.95C35.2096 134.35 36.5295 134.69 37.9795 134.76C37.6295 131.35 38.2696 128.23 39.8696 125.31C40.1296 124.84 40.4295 124.3 41.0795 124.39C41.7295 124.49 41.7595 125.1 41.9595 125.61C42.2895 126.45 41.9695 127.45 42.5895 128.33C44.7295 126.18 47.0995 124.52 49.5895 123.03C50.2895 122.61 51.0596 121.54 51.8796 122.39C52.6296 123.17 51.7196 124.04 51.2596 124.73C50.3896 126.03 49.4095 127.26 48.3195 128.72C50.0995 128.01 51.5795 127.37 53.0995 126.85C53.8895 126.58 54.8796 125.43 55.5396 126.55C56.1496 127.58 54.8795 128.25 54.2095 128.89C52.9595 130.08 51.6096 131.17 49.9895 132.58C52.1996 132.13 53.9496 131.66 55.7596 131.52C56.2696 131.48 56.7696 131.31 57.0196 131.9C57.2496 132.44 56.9196 132.85 56.5396 133.18C55.5596 134.02 54.4396 134.62 53.2896 135.2C51.8696 135.92 50.3695 136.49 48.8295 137.63C51.6095 138.13 53.9195 139.2 56.3395 139.97C56.8495 140.13 57.6396 140.17 57.5296 141.01C57.4296 141.83 56.7195 141.94 56.0795 141.96C50.7595 142.11 45.4196 142.25 40.5396 139.56C39.8396 139.18 39.1896 139.17 38.4296 139.38C35.1996 140.25 31.9295 140.86 28.5895 141.19C27.2795 141.32 25.9796 141 24.5296 141.25C26.4496 146.29 28.8596 150.9 31.8996 155.33C33.2196 152.69 34.6495 151.9 37.1995 152.27C39.5295 152.61 41.6895 154.52 42.0895 156.6C42.3795 158.13 41.4596 159.75 40.1796 159.96C38.3396 160.26 35.5295 158.77 34.7295 157.08C34.3395 156.26 34.3895 155.52 35.1895 155.02C36.3295 154.31 37.4096 154.73 38.3096 155.48C38.8896 155.97 39.3495 156.7 38.4795 157.52C37.5995 157.09 37.4296 155.12 35.8096 156.19C36.2796 157.52 37.3595 158.12 38.4795 158.63C39.1195 158.92 39.9296 159.28 40.5196 158.58C41.0496 157.95 41.1395 157.17 40.8195 156.36C40.0795 154.56 38.5596 153.84 36.7996 153.52C35.3396 153.26 34.1796 153.88 33.4296 155.13C32.6996 156.34 33.3895 157.3 34.1995 158.15C38.3295 162.48 42.9895 166 48.8295 167.72C49.0095 167.77 49.1796 167.87 49.2696 167.9C48.8496 168.83 48.1495 168.94 47.5695 169.07C44.0795 169.82 40.5595 170.48 37.0695 171.25C36.1195 171.46 34.9996 171.35 34.2696 172.22C34.4396 172.62 34.7596 172.6 35.0496 172.62C37.6996 172.81 40.3396 172.93 43.0096 172.78C48.2096 172.48 53.4195 172.23 58.6095 171.8C59.1495 171.75 59.6195 171.75 59.9395 171.13C61.6595 167.81 64.2295 165.27 67.3295 163.25C73.7495 159.08 80.6395 156.94 88.4595 156.97C95.5495 157 101.96 158.58 108.02 162.07C111.71 164.2 114.85 166.92 117 170.63C117.5 171.5 117.98 171.78 118.91 171.84C124.51 172.16 130.1 172.53 135.689 172.89C138.119 173.04 140.52 172.78 143.07 172.51C142.58 171.67 141.96 171.64 141.4 171.52C137.57 170.72 133.73 169.95 129.9 169.13C129.19 168.98 128.35 168.91 127.99 167.99C128.21 167.87 128.36 167.75 128.54 167.69C134.45 165.87 139.21 162.32 143.29 157.8C144.45 156.52 144.27 155.29 142.99 154.24C141.72 153.19 140.33 153.37 138.96 153.95C137.59 154.52 136.45 155.4 136.24 156.98C136.13 157.82 136.28 158.73 137.33 158.96C138.63 159.24 140.89 157.56 141.24 156.11C139.69 155.23 139.61 157.19 138.66 157.53C137.82 156.61 138.37 155.88 139.01 155.4C139.94 154.7 141.05 154.31 142.14 155.15C142.89 155.73 142.84 156.51 142.38 157.27C141.41 158.84 139.91 159.65 138.16 159.97C136.45 160.28 135.64 159.64 135.18 157.92C134.85 156.71 135.24 155.67 135.95 154.76C137.27 153.07 139.029 152.22 141.189 152.23C143.249 152.24 144.4 153.53 145.32 155.35C148.34 150.85 150.809 146.28 152.689 141.15C147.85 141.63 143.49 140.6 139.15 139.54C138.07 139.28 137.19 139.29 136.22 139.81C131.39 142.38 126.15 142.15 120.93 142C120.33 141.98 119.71 141.8 119.64 141.04C119.57 140.29 120.24 140.22 120.73 140.06C123.18 139.28 125.54 138.19 128.38 137.69C126.75 136.53 125.2 135.93 123.73 135.18C122.59 134.6 121.46 134 120.52 133.11C120.19 132.8 119.94 132.4 120.17 131.92C120.41 131.43 120.82 131.5 121.3 131.54C123.15 131.71 124.96 132.15 126.83 132.55C126.7 131.92 126.19 131.75 125.84 131.44C124.64 130.35 123.39 129.3 122.21 128.19C121.77 127.77 121.16 127.25 121.6 126.55C122.09 125.78 122.73 126.32 123.29 126.54C125.08 127.25 126.86 127.97 128.92 128.79C128.49 128.22 128.26 127.9 128.01 127.59C127.02 126.37 126 125.16 125.29 123.74C125.08 123.32 124.8 122.8 125.27 122.37C125.7 121.98 126.18 122.15 126.61 122.45C126.81 122.59 127.03 122.71 127.24 122.83C129.87 124.42 132.36 126.21 134.74 128.45C134.94 127.36 135.1 126.5 135.24 125.64C135.33 125.08 135.46 124.52 136.12 124.44C136.77 124.36 137.06 124.91 137.32 125.38C138 126.64 138.52 127.96 138.86 129.35C139.3 131.15 139.32 132.99 139.27 134.9C144.32 133.96 148.98 132.31 153.54 130.33C154.39 129.96 155.15 129.38 155.939 128.89C156.38 128.62 156.57 128.26 156.61 127.69C156.81 125.24 157.1 122.81 157.34 120.36C157.47 119.09 158.02 117.62 157.57 116.59C156.7 114.6 155.26 112.86 154.06 111.01C153.87 113.35 153.91 115.56 153.66 117.76C153.53 118.92 153.65 120.31 152.4 120.87C151.09 121.45 150.22 120.3 149.35 119.54C144.72 115.55 140.26 111.39 135.81 107.2C134.36 105.83 132.85 104.51 131.14 102.96C131.23 103.69 131.28 104.07 131.32 104.45C131.52 106.65 131.85 108.85 131.49 111.07C131.39 111.69 131.2 112.22 130.59 112.49C129.9 112.8 129.34 112.45 128.85 112.02C127.88 111.16 127.22 110.05 126.56 108.96C125.94 107.93 125.33 106.9 124.62 105.71C124.2 107.71 123.92 109.44 123.47 111.13C122.51 114.77 121.65 115.02 118.78 112.65C115.58 110.01 112.85 106.89 109.79 104.1C109.42 103.76 109.14 103.22 108.33 103.26C108.6 105.73 108.89 108.16 109.14 110.6C109.43 113.43 109.99 116.24 109.88 119.11C109.86 119.77 109.91 120.6 109.05 120.82C108.29 121.01 107.93 120.34 107.56 119.83C105.86 117.46 104.64 114.82 103.33 112.23C103.03 111.64 102.89 110.93 102.14 110.4C102.38 111.8 102.61 113.05 102.8 114.3C102.89 114.91 102.81 115.51 102.18 115.83C101.54 116.15 101.04 115.8 100.59 115.39C99.4495 114.35 98.6595 113.03 97.8395 111.75C97.0395 110.49 96.2796 109.21 95.2796 107.59C95.3096 110.8 95.5896 113.54 95.1196 116.28C94.6395 119.07 92.9696 119.75 90.7996 117.92C90.0296 117.27 89.4195 116.43 88.5895 115.52C87.6695 116.52 87.0596 117.38 86.2696 118.02C84.1996 119.7 82.5695 119.02 82.0895 116.41C81.7495 114.55 81.8295 112.69 81.8295 110.82C81.8295 109.89 81.8295 108.96 81.8295 107.82C81.5495 108.22 81.3996 108.42 81.2696 108.62C79.8996 110.84 78.6996 113.17 76.9196 115.1C76.4196 115.64 75.8496 116.25 75.0196 115.82C74.1896 115.39 74.3495 114.57 74.4595 113.85C74.6195 112.75 74.8596 111.66 75.0596 110.57C73.8796 112.25 72.9795 114.03 72.0695 115.8C71.2795 117.34 70.4096 118.82 69.3796 120.2C69.0796 120.61 68.6996 120.96 68.1396 120.83C67.5496 120.7 67.4296 120.17 67.3896 119.68C67.3196 119 67.2595 118.3 67.3295 117.62C67.6595 114.45 68.0796 111.28 68.3696 108.1C68.5196 106.49 68.9796 104.87 68.6596 103.07C66.9496 104.38 65.6195 105.82 64.2295 107.2C61.9495 109.45 59.7696 111.81 57.1196 113.62C55.6196 114.64 55.0395 114.44 54.3195 112.78C53.3095 110.56 53.0495 108.22 52.5995 105.58Z" fill="#FDB7AA"/>
<path d="M127.559 124.54C128.029 125.14 128.499 125.75 128.979 126.34C130.309 127.98 131.699 129.58 132.819 131.39C133.049 131.76 133.359 132.18 132.899 132.58C132.509 132.92 132.069 132.81 131.679 132.54C130.989 132.06 130.349 131.52 129.629 131.09C128.709 130.54 127.909 129.74 126.579 129.5C128.059 130.92 129.389 132.16 130.679 133.44C131.079 133.84 131.649 134.28 131.239 134.95C130.819 135.62 130.199 135.29 129.649 135.12C128.539 134.79 127.509 134.17 125.939 133.95C127.769 135.03 129.249 135.9 130.729 136.77C131.149 137.02 131.669 137.25 131.619 137.84C131.569 138.44 131.019 138.53 130.539 138.67C128.849 139.18 127.169 139.7 125.079 140.35C129.719 140.48 132.329 139.91 136.299 137.95C136.879 137.66 137.419 137.68 138.009 137.79C139.939 138.14 141.869 138.48 143.799 138.84C152.809 140.51 160.779 138.08 167.769 132.42C173.349 127.91 176.079 121.95 175.279 114.74C174.639 108.95 172.429 103.63 169.449 98.64C167.269 94.99 164.569 91.71 161.469 88.25C161.879 89.67 162.209 90.7 162.469 91.74C164.419 99.54 164.609 107.5 164.529 115.49C164.529 115.88 164.429 116.32 164.569 116.66C165.709 119.37 164.659 121.71 163.199 123.85C160.769 127.42 157.489 130.11 153.559 131.88C149.439 133.74 145.179 135.27 140.729 136.17C138.259 136.67 137.929 136.38 137.859 133.84C137.799 131.54 137.499 129.28 136.509 126.84C136.369 127.83 136.259 128.51 136.179 129.19C136.099 129.85 136.359 130.68 135.509 130.98C134.659 131.29 134.299 130.5 133.879 130C132.069 127.83 129.969 126.03 127.559 124.54Z" fill="#FC846A"/>
<path d="M49.8899 129.24C48.5299 130.24 47.0598 131.34 45.5698 132.43C45.1398 132.74 44.6798 132.96 44.2298 132.59C43.6898 132.15 44.0798 131.67 44.3498 131.29C45.2098 130.09 46.0998 128.91 46.9998 127.74C47.8298 126.66 48.6899 125.61 49.5399 124.55C48.6799 124.89 48.0098 125.39 47.3798 125.93C45.7998 127.26 44.2798 128.67 42.9798 130.29C42.6398 130.71 42.2799 131.18 41.6399 130.98C40.9899 130.77 40.9998 130.19 40.9598 129.64C40.9298 129.2 40.8998 128.76 40.8398 128.32C40.7898 127.93 40.6998 127.55 40.5698 126.88C39.6398 129.35 39.3199 131.62 39.2699 133.94C39.2199 136.36 38.8499 136.63 36.4299 136.17C32.7399 135.46 29.2698 134.08 25.7498 132.83C22.0598 131.52 18.9299 129.33 16.1799 126.61C14.1999 124.65 12.6898 122.4 12.1198 119.56C11.8298 118.1 12.6598 116.91 12.6198 115.51C12.4298 108.86 12.7299 102.23 13.7799 95.65C14.1599 93.26 14.8499 90.94 15.5599 88.5C15.3599 88.6 15.2999 88.61 15.2699 88.64C14.7499 89.23 14.2398 89.83 13.7198 90.42C8.86981 95.96 5.11981 102.12 2.96981 109.22C0.339814 117.91 1.71986 125.58 8.63986 131.81C13.4199 136.12 19.1198 138.6 25.4898 139.23C29.9198 139.67 34.3099 138.78 38.6399 137.86C39.4699 137.68 40.2599 137.54 41.0499 138.06C44.2799 140.17 47.9598 140.2 51.6198 140.31C49.9698 139.7 48.2898 139.17 46.6098 138.67C46.1298 138.53 45.5798 138.44 45.4998 137.86C45.4198 137.28 45.9298 137.03 46.3598 136.78C47.8598 135.89 49.3598 135 50.8598 134.12C49.6698 134.3 48.5898 134.72 47.4898 135.1C46.9498 135.29 46.3199 135.62 45.8899 134.96C45.4499 134.29 46.0399 133.88 46.3999 133.44C47.5499 132.04 48.7199 130.64 49.8899 129.24Z" fill="#FC846A"/>
<path d="M88.6197 120.66C95.0897 120.62 101.51 120.93 107.71 123.01C110.12 123.82 112.3 125 114.19 126.73C115.69 128.1 116.67 129.75 117.06 131.76C117.6 134.53 116.22 136.31 113.38 136.3C110.72 136.29 108.12 135.64 105.5 135.25C99.1297 134.3 92.7297 133.45 86.2797 133.7C80.0897 133.94 73.9597 134.82 67.8497 135.84C66.3497 136.09 64.8498 136.41 63.3098 136.3C60.8898 136.12 59.5997 134.46 59.9897 132.06C60.5097 128.83 62.5197 126.7 65.1397 125.03C68.8397 122.66 73.0497 121.84 77.2897 121.22C81.0397 120.68 84.8297 120.62 88.6197 120.66Z" fill="#4A4A4A"/>
<path d="M102.09 123.68C103.79 126.17 105.26 128.55 107.13 130.8C108.13 129.45 108.62 128.09 108.95 126.66C109.1 126 108.96 125.58 108.24 125.32C106.31 124.62 104.36 124.03 102.09 123.68Z" fill="white"/>
<path d="M70.1091 130.8C71.7391 128.45 73.3191 126.18 75.1091 123.61C73.7891 123.9 72.8892 124.08 71.9992 124.31C67.5192 125.49 67.1392 126.55 69.7492 130.5C69.7692 130.54 69.8191 130.56 70.1091 130.8Z" fill="white"/>
<path d="M79.5791 128.55C81.2591 126.83 82.5592 125 83.5492 122.67C81.2792 122.74 79.1891 122.79 77.1191 123.39C77.4391 125.4 78.0291 127.11 79.5791 128.55Z" fill="white"/>
<path d="M99.9994 123.37C97.9094 122.84 95.8293 122.66 93.5693 122.73C94.5793 124.98 95.8194 126.86 97.5394 128.51C99.0594 127.13 99.6294 125.46 99.9994 123.37Z" fill="white"/>
<path d="M85.8496 122.52C86.2296 124.09 86.5796 125.56 87.3396 126.88C88.0596 128.13 89.0697 128.12 89.7697 126.84C90.4997 125.51 90.9497 124.07 91.1697 122.52C89.3897 122.52 87.6896 122.52 85.8496 122.52Z" fill="white"/>
<path d="M110.499 126.4C110.409 128.59 109.679 130.29 108.639 131.86C107.839 133.06 106.659 133.17 105.669 132.14C105.159 131.61 104.719 131 104.319 130.39C103.339 128.88 102.399 127.34 101.369 125.7C100.779 126.83 100.319 127.86 99.6193 128.75C98.1793 130.57 97.1293 130.65 95.5093 128.99C94.4193 127.88 93.6593 126.52 92.7093 125.18C91.7793 127.18 91.4694 129.6 88.7894 129.77C85.6994 129.97 85.3793 127.25 84.3493 125.16C83.3593 126.72 82.4693 128.19 81.1893 129.36C79.9393 130.5 78.8994 130.41 77.7794 129.13C76.9094 128.14 76.3893 126.95 75.6993 125.74C74.2693 127.84 73.2194 130.03 71.6594 131.88C70.5094 133.25 69.2694 133.15 68.3094 131.65C67.3294 130.12 66.7194 128.45 66.5394 126.45C64.6494 127.63 63.0394 128.82 62.1794 130.74C61.6994 131.82 61.1593 133.02 61.9993 134.09C62.7993 135.11 64.0794 134.87 65.1794 134.71C69.2594 134.12 73.3294 133.49 77.4194 132.94C86.2694 131.76 95.0593 132.14 103.849 133.48C106.859 133.94 109.859 134.47 112.889 134.74C115.179 134.95 115.909 133.83 115.249 131.61C114.539 129.23 112.719 127.85 110.499 126.4Z" fill="#FC846A"/>
<path d="M82.3894 138.1C87.4094 138.47 92.4193 138 97.4393 138.1C100.149 138.15 102.829 138.45 105.459 139.16C105.909 139.28 106.579 139.3 106.479 139.97C106.379 140.6 105.739 140.54 105.269 140.51C103.009 140.37 100.759 140.11 98.4994 140.03C91.9094 139.79 85.3094 139.82 78.7194 140.02C76.8594 140.08 74.9994 140.33 73.1394 140.48C72.7494 140.51 72.3493 140.54 71.9593 140.51C71.4493 140.48 70.7294 140.66 70.6494 139.92C70.5794 139.27 71.2794 139.27 71.7194 139.14C74.1494 138.47 76.6394 138.21 79.1494 138.11C80.2194 138.06 81.2994 138.1 82.3894 138.1Z" fill="#4A4A4A"/>
</svg>
