<svg width="181" height="172" viewBox="0 0 181 172" fill="none" xmlns="http://www.w3.org/2000/svg">
<path d="M134.02 114.42C140.42 113.39 146.08 115.34 151.45 118.35C155.99 120.89 159.05 124.74 160.45 129.75C161.31 132.82 161.38 135.9 159.01 138.66C161.05 138.98 162.88 139.15 164.67 139.56C172.59 141.35 177.35 146.47 179.74 154.04C180.32 155.88 180.72 157.73 180.66 159.69C180.59 161.88 179.6 163.41 177.74 164.48C175.43 165.81 172.89 166.34 170.31 166.74C160.73 168.23 151.07 169.06 141.4 169.5C135.81 169.75 130.18 169.47 124.65 170.37C116.06 171.76 107.42 172.06 98.7603 171.81C90.8403 171.58 82.9203 172.18 75.0203 171.75C64.5103 171.18 54.0003 170.49 43.5603 168.94C39.0403 168.27 34.5403 167.42 30.0103 166.83C26.6503 166.39 23.3302 166.77 19.9902 166.77C14.5802 166.76 10.8902 164.24 8.84021 159.18C6.55021 153.55 5.71027 147.62 4.77027 141.69C3.22027 131.89 2.94027 122.02 2.65027 112.13C2.51027 107.27 1.89029 102.42 1.55029 97.5701C1.29029 93.7901 1.06021 90.0101 0.960207 86.2201C0.790207 79.7301 1.93019 73.3801 3.32019 67.0801C5.59019 56.8101 9.82025 47.4101 16.0002 38.8901C22.7602 29.5801 32.0502 24.6401 43.2302 22.8801C44.4002 22.7001 45.5602 22.4801 46.7202 22.2801C46.8002 22.2601 46.8802 22.1801 47.0702 22.0601C44.3502 15.5301 44.8603 8.94006 47.0403 2.35006C47.2803 1.61006 47.6203 0.910059 48.3802 0.560059C49.0002 0.980059 48.5902 1.34006 48.4602 1.74006C46.1902 8.22006 45.9903 14.7201 48.3003 21.2501C48.4803 21.7501 48.7002 22.0701 49.3502 22.0201C51.3002 21.8601 53.2602 21.7801 55.3402 21.6601C55.4202 18.9401 55.2203 16.2501 55.5403 13.5801C55.8503 10.9801 55.5603 8.24006 57.1603 5.89006C57.1203 11.1401 56.6402 16.3501 57.1002 21.5701C58.1602 21.9501 59.1502 21.7201 60.1202 21.7601C61.0002 21.7901 60.9702 21.0601 61.1002 20.5401C61.8502 17.6201 63.0702 14.8901 64.3402 12.1701C64.4602 11.9001 64.6203 11.6401 64.7903 11.4101C65.0403 11.0701 65.2702 10.5401 65.8202 10.8601C66.3002 11.1401 65.9502 11.5501 65.8202 11.9001C65.0802 13.8301 64.3102 15.7401 63.6002 17.6801C63.1302 18.9701 62.7602 20.2901 62.3602 21.5701C62.9502 22.2101 63.6302 21.9801 64.2402 22.0401C72.7602 22.9101 81.2603 23.8501 89.4303 26.6501C99.4703 30.0901 107.23 36.6201 113.75 44.7301C122.9 56.1201 128.38 69.2501 131.53 83.4201C133.44 92.0001 134.51 100.68 134.2 109.49C134.17 110.33 134.05 111.16 134.01 111.99C133.97 112.7 133.74 113.47 134.02 114.42Z" fill="#4A4A4A"/>
<path d="M50.3998 27.8501C49.6198 27.8501 49.4398 27.2201 49.1598 26.7301C47.5498 23.9601 47.5598 23.9601 44.4098 24.5901C44.2198 24.6301 44.0197 24.6601 43.8297 24.6901C32.0497 26.5201 22.7397 32.2301 16.1997 42.3001C6.95968 56.5401 2.97971 72.2501 3.34971 89.1101C3.50971 96.3401 4.35978 103.55 4.67978 110.77C5.18978 122.52 5.38977 134.29 7.41977 145.92C8.20977 150.43 9.06967 154.92 10.9397 159.15C12.4697 162.62 15.0297 164.53 18.8797 164.8C20.9597 164.95 22.9998 164.63 25.0598 164.57C26.1498 164.54 27.2697 164.97 28.3897 164.49C28.0697 162.95 27.6797 161.47 27.4597 159.97C26.6497 154.43 26.0398 148.88 25.9098 143.28C25.7798 137.44 25.0798 131.61 25.8098 125.77C25.9198 124.92 25.7197 124.47 24.9697 124.01C19.4297 120.62 15.5698 115.55 11.6698 110.53C11.4498 110.25 11.0497 109.87 11.4797 109.51C11.9997 109.08 12.2598 109.62 12.5298 109.93C14.1898 111.88 15.8997 113.79 17.4897 115.8C21.8097 121.27 27.4897 124.54 34.1397 126.32C39.1197 127.66 45.7597 125.27 48.1897 121.09C50.3097 117.44 51.4098 113.49 50.9098 109.22C50.1198 102.46 46.7498 97.0801 41.6698 92.7501C34.4398 86.5801 25.7997 83.2301 16.8197 80.5801C16.4297 80.4701 15.8797 80.6601 15.7497 79.9601C16.2697 79.3901 17.0097 79.4601 17.6297 79.6101C29.5297 82.5801 40.4698 87.2301 48.1698 97.1601C57.7898 94.0701 66.8197 94.0101 74.8297 101.32C76.8397 98.7201 79.0797 96.2401 81.8697 94.3501C90.7597 88.3301 100.84 86.2601 111.33 85.6301C112 85.59 112.78 85.6401 113.18 86.3201C113.1 86.6701 112.91 86.7401 112.71 86.7501C107.37 86.9601 102.18 88.0501 97.0498 89.4301C90.4698 91.2001 84.2697 93.7601 79.3597 98.7301C73.9297 104.23 71.3298 110.65 73.0498 118.46C74.2198 123.79 78.8497 128.03 84.3297 128.36C90.0497 128.71 95.4798 127.45 100.4 124.43C104.02 122.21 107.21 119.41 110.49 116.72C110.9 116.38 111.23 115.75 111.95 116.04C112.25 116.87 111.58 117.16 111.19 117.51C108.91 119.61 106.55 121.63 103.99 123.39C102.46 124.44 101.62 125.45 101.49 127.64C100.83 138.89 99.8097 150.13 98.8897 161.36C98.6497 164.29 98.3097 167.21 97.6197 170.18C103.32 170.3 108.86 170.27 114.4 169.87C119.35 169.51 124.24 168.5 129.21 168.3C133.78 168.11 138.35 168.08 142.91 167.83C150.52 167.4 158.09 166.47 165.65 165.55C169.2 165.12 172.82 164.84 176.1 163.19C178.32 162.08 179.04 160.88 178.76 158.45C178.26 153.98 176.58 149.96 173.53 146.63C169.67 142.41 164.5 141.11 159.07 140.42C158.15 140.3 157.53 140.52 156.9 141.25C155.65 142.7 154.41 144.18 152.82 145.29C152.35 145.61 151.85 146.09 151.34 145.35C151.34 144.87 151.65 144.61 151.95 144.36C154.59 142.09 156.7 139.4 158.47 136.42C158.96 135.59 159.25 134.76 159.3 133.79C159.52 129.97 158 126.79 155.72 123.9C152.35 119.61 147.57 117.7 142.54 116.28C139.96 115.56 137.32 115.42 134.65 115.83C133.86 115.95 133.57 116.24 133.51 117.03C133.16 121.55 132.23 125.98 131.27 130.41C130.55 133.72 129.88 137.05 128.58 140.21C128.39 140.66 128.21 141.24 127.56 141.01C126.88 140.76 127.21 140.25 127.36 139.77C129.18 133.93 130.28 127.93 131.11 121.9C132.49 111.88 132.77 101.83 131.28 91.7501C129.26 78.0401 125.05 65.1301 117.6 53.3901C111.6 43.9201 103.98 36.0601 93.8998 30.8601C84.4698 26.0001 74.1698 24.6801 63.7998 23.7401C61.7598 23.5501 61.7697 23.6501 61.5097 25.7501C61.4197 26.5201 61.6598 27.4201 60.7998 28.1001C59.8698 26.6101 60.5998 25.0501 60.2998 23.5801C59.2998 23.5801 58.3997 23.5801 57.4997 23.5801C57.2297 25.1801 58.4997 26.5701 58.0097 28.3501C56.4897 27.3301 56.3897 25.8801 55.9597 24.6201C55.7597 24.0501 55.7398 23.4601 54.8998 23.5101C53.0998 23.6201 51.3097 23.6801 49.4897 23.7601C49.4997 24.6601 49.9698 25.2101 50.1798 25.8501C50.3998 26.5201 51.1798 27.1101 50.3998 27.8501Z" fill="#C8A8E5"/>
<path d="M45.3008 126.37C46.6508 128.27 47.7307 130.2 48.3207 132.36C48.5207 133.1 48.8807 133.98 47.9907 134.49C47.1307 134.99 46.5007 134.33 45.9407 133.78C44.1107 131.98 42.5107 130 40.9907 127.79C35.9307 129.14 31.4107 127.19 26.7107 125.01C26.6007 126.94 26.4008 128.64 26.4308 130.34C26.5108 134.8 26.6507 139.27 26.8607 143.73C27.1807 150.45 27.7508 157.15 29.2908 163.73C29.4808 164.55 29.8607 164.86 30.6607 164.95C38.9707 165.91 47.1507 167.65 55.4907 168.49C69.0807 169.86 82.6707 170.3 96.3707 170.02C96.4207 169.91 96.5108 169.74 96.5608 169.56C97.9008 164.63 98.1307 159.56 98.4507 154.51C99.0007 145.62 99.6207 136.74 100.441 127.87C100.491 127.27 100.641 126.65 100.441 126.1C93.6307 129.06 86.9007 131.58 79.5307 128.81C77.5607 130.74 75.5307 132.52 73.2207 133.95C72.6607 134.3 72.0307 134.54 71.4507 133.99C70.9307 133.5 71.1407 132.89 71.3507 132.34C71.5207 131.88 71.7307 131.43 71.9907 131.01C73.0307 129.34 74.2108 127.79 75.6708 126.51C75.2308 125.79 74.8308 125.6 74.1708 126.06C73.0408 126.84 71.8708 127.59 70.6708 128.26C69.8208 128.74 68.7608 129.76 67.9208 128.73C67.1408 127.78 68.2008 126.83 68.7908 126.01C69.8108 124.6 71.3107 123.72 72.6607 122.68C72.3607 122.18 72.3307 121.64 71.7507 121.34C70.2907 122.04 68.8008 122.78 67.2908 123.49C66.6208 123.8 65.9307 124.05 65.2507 124.35C64.7307 124.58 64.2808 124.5 63.9308 124.06C63.6108 123.66 63.7007 123.23 63.9107 122.81C64.3007 122.06 64.8207 121.41 65.4407 120.84C66.7607 119.63 68.2307 118.65 69.8607 117.94C70.7107 117.57 71.0508 117.1 70.9208 116.17C70.2808 111.57 71.2107 107.28 73.5907 103.29C73.8707 102.82 73.9908 102.44 73.5508 101.98C72.3508 100.74 71.1008 99.6201 69.5408 98.7901C64.5008 96.1201 59.1607 96.0501 53.7307 96.8201C52.0707 97.0601 50.3807 97.4001 48.8707 98.4701C52.6907 104.46 53.9907 110.75 51.7107 117.54C51.4607 118.27 51.9007 118.5 52.3407 118.82C53.9007 119.95 55.3808 121.2 56.4308 122.83C57.0408 123.77 58.2407 124.92 57.2707 125.95C56.1607 127.13 55.1707 125.65 54.2707 125.07C52.7707 124.09 51.4507 122.82 49.8407 122C49.4707 122.43 49.0807 122.74 49.0007 123.29C50.3707 124.64 51.7307 126.01 52.4507 127.84C52.7407 128.56 53.1907 129.43 52.4407 130.02C51.6607 130.64 50.9507 129.95 50.3707 129.44C49.1807 128.4 48.0107 127.35 46.8907 126.25C46.3007 125.67 45.8408 125.62 45.3008 126.37Z" fill="#E9DFF4"/>
<path d="M50.5003 121.01C52.1003 122.05 53.7102 123.1 55.3302 124.15C54.2802 122.26 52.8003 120.88 51.1003 119.61C50.7503 120.12 50.4903 120.46 50.5003 121.01Z" fill="white"/>
<path d="M71.0699 118.81C69.2799 119.83 67.49 120.77 66.21 122.48C67.98 121.75 69.76 121.01 71.5 120.29C71.57 119.77 71.4999 119.35 71.0699 118.81Z" fill="white"/>
<path d="M45.9603 131.53C45.5703 129.8 45.0003 128.22 43.9503 126.86C43.3503 127.14 42.7604 127.11 42.4004 127.64C43.5904 128.94 44.7703 130.23 45.9603 131.53Z" fill="white"/>
<path d="M78.3802 128.19C77.8202 127.82 77.4102 127.41 76.7002 127.32C75.6502 128.49 74.7102 129.76 73.7402 131.49C75.6102 130.49 76.8602 129.26 78.3802 128.19Z" fill="white"/>
<path d="M73.1299 123.85C71.9099 124.87 70.6898 125.92 69.8398 127.38C71.2198 126.57 72.5898 125.76 73.9498 124.97C73.9098 124.4 73.6499 124.09 73.1299 123.85Z" fill="white"/>
<path d="M50.6903 128.13C50.1403 126.57 49.2103 125.32 48.1203 124.06C47.7603 124.49 47.2604 124.61 47.2904 125.21C48.4204 126.18 49.5503 127.16 50.6903 128.13Z" fill="white"/>
<path d="M64.0106 57.0001C62.7906 59.9701 61.3106 62.3101 59.3806 64.3901C53.6606 70.5601 43.7206 71.9501 37.1606 67.4001C33.9906 65.2001 32.0105 62.1401 31.4405 58.3001C31.2305 56.8601 30.3206 56.4601 29.1306 56.3001C27.1706 56.0301 25.2806 55.5201 23.4406 54.8001C22.5606 54.4501 21.7207 54.0301 21.1707 53.2301C20.8607 52.7701 20.4306 52.2201 21.2406 51.7301C23.4306 54.4501 26.7306 54.1701 29.6506 54.7801C37.2706 56.3701 44.5806 54.5401 51.8806 52.5901C56.1606 51.4501 60.5006 50.6501 64.9906 51.2401C68.3806 51.6801 71.5507 52.8901 74.8107 53.8001C84.2007 56.4201 93.6906 57.5601 103.381 55.7201C104.891 55.4301 106.311 54.9101 107.721 54.3301C108.161 54.1501 108.771 53.5601 109.131 54.2601C109.501 54.9801 108.721 55.2501 108.251 55.5301C106.201 56.7901 103.901 57.5201 101.551 57.5901C98.6107 57.6701 96.6407 58.6201 95.5507 61.5201C95.0007 62.9901 93.8606 64.2801 92.8406 65.5401C88.8606 70.5001 83.5606 71.7901 77.5106 70.9301C75.6906 70.6701 73.9906 70.0601 72.3306 69.3001C67.9606 67.3101 65.8906 63.5701 64.6106 59.2201C64.4406 58.6001 64.2806 57.9901 64.0106 57.0001Z" fill="#4A4A4A"/>
<path d="M63.7806 52.83C63.0406 52.54 62.5106 52.52 61.9706 52.54C58.8606 52.66 55.8406 53.36 52.8206 54.03C51.8506 54.25 51.3306 54.68 51.0006 55.66C50.3506 57.61 49.5806 59.53 48.7706 61.42C48.3606 62.37 48.1007 63.76 46.8007 63.71C45.4107 63.66 45.2406 62.22 44.9506 61.17C44.5206 59.58 44.2706 57.93 43.9406 56.24C40.1506 57.01 36.4106 57.24 32.6006 56.89C34.9106 66.65 44.9507 71.98 54.4307 66.67C59.7807 63.7 62.0506 58.46 63.7806 52.83Z" fill="white"/>
<path d="M83.8802 57.4901C83.6802 58.0701 83.5302 58.5801 83.3402 59.0801C82.6102 60.8901 82.1302 62.8401 80.8202 64.3701C79.8402 65.5101 79.0803 65.3401 78.6503 63.8901C78.0103 61.7301 77.4002 59.5501 77.2502 57.2801C77.1902 56.4101 76.8602 56.0201 75.9802 55.8001C74.4102 55.4201 72.8802 54.8701 71.3402 54.3601C69.4102 53.7201 67.4602 53.1601 65.2002 52.8301C65.6002 54.5401 65.8602 56.0901 66.3202 57.5701C67.3002 60.7201 68.2302 64.0001 70.9802 66.1101C79.2102 72.4201 91.0402 71.1601 95.3802 58.2401C91.5502 58.3901 87.8102 57.8701 83.8802 57.4901Z" fill="white"/>
<path d="M46.9304 62.2101C48.1904 59.7601 49.2004 57.4601 50.0404 54.7201C48.3104 55.4001 46.7203 55.4101 45.3203 56.1401C45.8503 58.1401 45.8504 60.1701 46.9304 62.2101Z" fill="#E5A700"/>
<path d="M79.8408 63.14C81.1708 61.32 82.0908 59.46 82.6108 57.25C81.1308 56.97 79.7709 56.72 78.1709 56.42C78.7609 58.8 79.3008 60.97 79.8408 63.14Z" fill="#E5A700"/>
<path d="M33.1504 48.4601C40.0604 49.7701 46.1604 46.9801 52.3904 44.8701C54.7204 44.0901 57.0204 43.2401 59.4204 42.7001C63.3104 41.8101 66.8904 43.0901 70.5304 44.1401C74.4904 45.2801 78.3203 46.8401 82.3203 47.8701C85.0103 48.5701 87.6904 48.2001 90.3804 48.0901C91.5704 48.0401 92.7803 47.7801 94.0703 48.0301C93.8703 49.0201 93.1404 49.0101 92.5004 49.1401C87.2204 50.2301 82.1004 49.8401 77.0304 47.8301C73.3904 46.3801 69.6004 45.2901 65.8604 44.0701C62.5204 42.9801 59.2604 43.5401 56.0304 44.6001C51.4604 46.1001 47.0104 47.9601 42.2904 48.9901C39.6704 49.5601 37.0404 49.7501 34.3904 49.2501C33.9004 49.1701 33.2904 49.2301 33.1504 48.4601Z" fill="#4A4A4A"/>
<path d="M120.33 99.6601C120.37 102.31 119.23 104.61 118.07 106.88C117.61 107.78 116.8 108.28 115.74 107.95C114.71 107.63 114.5 106.79 114.58 105.83C114.78 103.49 114.79 101.11 115.91 98.9601C116.23 98.3601 116.56 97.7501 116.97 97.2101C117.48 96.5401 118.19 96.2301 119.05 96.5101C119.86 96.7701 120.16 97.4301 120.24 98.2001C120.3 98.6701 120.31 99.1701 120.33 99.6601Z" fill="#E9DFF4"/>
<path d="M14.1097 64.8301C13.9897 66.7301 13.7298 68.4201 12.8898 69.9701C12.3998 70.8801 11.7297 71.6001 10.5697 71.4201C9.39969 71.2401 9.01969 70.3301 8.81969 69.3201C8.39969 67.2101 8.89973 65.2201 9.72973 63.3101C10.1397 62.3801 10.6198 61.4701 12.0098 61.6901C13.4098 61.9101 13.8998 62.7501 14.0398 63.9901C14.0798 64.3201 14.0997 64.6601 14.1097 64.8301Z" fill="#E9DFF4"/>
<path d="M122.58 127.63C122.35 129.75 121.44 131.72 119.62 133.16C118.73 133.86 117.67 134.21 116.63 133.46C115.58 132.7 115.65 131.62 116.06 130.53C116.71 128.82 117.5 127.19 118.76 125.85C119.46 125.1 120.28 124.55 121.37 124.99C122.49 125.44 122.53 126.46 122.58 127.63Z" fill="#E9DFF4"/>
<path d="M113.83 123.65C113.73 120.77 115.31 118.64 117.04 116.61C117.51 116.05 118.16 115.81 118.89 116.13C119.63 116.45 119.91 117.11 119.74 117.82C119.18 120.25 118.63 122.7 117.2 124.81C116.68 125.58 115.96 126.12 114.96 125.77C113.97 125.43 113.77 124.58 113.83 123.65Z" fill="#E9DFF4"/>
<path d="M20.9898 63.46C20.9898 64.73 20.5098 66.32 19.1498 67.57C18.4798 68.19 17.7098 68.44 16.8598 68.07C15.9498 67.69 15.7599 66.86 15.7999 65.99C15.8799 64.5 16.4398 63.15 17.0698 61.8C17.6198 60.62 18.5598 60.22 19.6998 60.47C20.9698 60.77 21.0698 61.86 20.9898 63.46Z" fill="#E9DFF4"/>
<path d="M44.25 80.67C44.28 80.17 44.31 79.62 44.86 79.43C45.4 79.25 45.5999 79.68 45.8199 80.1C47.0299 82.4 49.22 83.39 51.75 82.7C53.55 82.21 55.35 81.66 57.09 81C60.81 79.57 64.3301 79.96 67.6801 82.03C69.7801 83.33 72.04 84.01 74.5 84.2C76.83 84.37 78.63 83.58 79.89 81.6C80.21 81.1 80.47 80.18 81.26 80.67C82.03 81.15 81.49 81.89 81.15 82.48C80.7 83.25 80.2201 84.11 79.4301 84.47C77.8701 85.18 77.35 86.51 76.78 87.93C76.33 89.07 75.76 90.18 74.92 91.09C73.78 92.33 72.83 92.25 71.99 90.82C71.19 89.45 70.6599 87.97 70.3199 86.42C70.1799 85.75 69.9 85.39 69.17 85.13C67.79 84.64 66.4601 83.96 65.1801 83.24C62.7701 81.87 60.34 81.51 57.7 82.54C55.82 83.27 53.9 83.89 51.98 84.51C49.38 85.36 47.13 84.71 45.25 82.77C44.69 82.18 44.31 81.49 44.25 80.67Z" fill="#4A4A4A"/>
<path d="M73.47 90.68C74.92 89.3 75.59 87.7 76.1 85.91C74.57 85.91 73.23 85.91 71.75 85.91C72.31 87.55 72.63 89.12 73.47 90.68Z" fill="white"/>
<path d="M70.0095 90.4501C68.8395 91.3001 67.4594 91.1701 66.1994 91.3701C64.0294 91.7301 61.8195 91.8801 59.6195 91.8601C57.7895 91.8401 56.1294 91.3501 54.8294 89.9901C54.4794 89.6201 53.9595 89.1701 54.3595 88.6001C54.8095 87.9501 55.3295 88.4301 55.7595 88.7101C58.8795 90.7401 62.3295 90.3101 65.7495 90.0701C66.8195 89.9901 67.8894 89.8701 68.9594 89.7301C69.4294 89.6701 69.8195 89.7201 70.0095 90.4501Z" fill="#4A4A4A"/>
<path d="M16.4803 56.19C16.3703 56.99 16.0103 57.91 15.9703 58.9C15.9503 59.41 15.3703 59.5 14.9103 59.42C13.7903 59.24 12.9603 58.7 12.8603 57.47C12.7503 56.18 13.8304 54.44 14.7904 54.28C15.7404 54.13 16.4603 54.87 16.4803 56.19Z" fill="#E9DFF4"/>
<path d="M125.77 115.75C125.63 116.93 125.16 117.99 124.26 118.83C123.75 119.31 123.1 119.46 122.5 119.08C121.88 118.69 121.8 118.04 122.05 117.38C122.42 116.41 122.9 115.5 123.71 114.81C124.15 114.43 124.68 114.36 125.23 114.6C125.72 114.82 125.72 115.28 125.77 115.75Z" fill="#E9DFF4"/>
<path d="M124.41 106.71C124.43 108.15 123.21 109.76 122.1 109.7C121.13 109.65 120.73 109 120.66 108.14C120.57 106.98 121.69 105.27 122.54 105.32C123.42 105.38 124.39 105.45 124.41 106.71Z" fill="#E9DFF4"/>
<path d="M166.38 153.91C166.08 154.63 165.51 155.16 164.76 155.43C164.41 155.56 164.04 155.17 164.13 154.82C164.32 154.05 164.71 153.35 165.6 153.2C166.05 153.13 166.35 153.37 166.38 153.91Z" fill="#4A4A4A"/>
<path d="M166.46 157.32C166.57 157.01 166.58 156.78 166.7 156.67C167.25 156.16 167.58 155.26 168.56 155.47C168.95 155.55 169.08 155.89 168.96 156.28C168.77 156.89 167.61 157.41 166.46 157.32Z" fill="#4A4A4A"/>
</svg>
