<svg width="166" height="193" viewBox="0 0 166 193" fill="none" xmlns="http://www.w3.org/2000/svg">
<path d="M133.01 82.57C134.35 85.92 135.69 89.12 136.65 92.46C139.88 103.63 141.4 115 140.73 126.63C140.69 127.29 140.52 127.98 141.18 128.49C146.08 132.34 146 137.67 145.5 143.12C145.3 145.35 145.09 147.57 144.89 149.77C156.6 152.43 158.55 158.36 155.53 168.52C156.49 168.52 157.41 168.51 158.33 168.52C163.95 168.6 167.23 173.68 164.9 178.78C163.5 181.84 161.28 184.02 157.91 184.9C153.28 186.1 148.95 188.28 144.25 189.23C137.9 190.51 131.46 191.21 124.99 191.45C116.05 191.79 107.14 192.75 98.1798 192.61C91.3098 192.51 84.4498 192.08 77.5798 192.31C72.5198 192.48 67.4498 192.83 62.3898 192.53C49.3098 191.77 36.1798 191.69 23.2098 189.56C20.1998 189.07 17.3298 188.05 14.4698 187.04C12.1898 186.23 9.89979 185.46 7.57979 184.77C4.00979 183.72 1.72979 181.24 0.609791 177.77C-0.930209 172.99 2.2298 168.67 7.2398 168.51C8.2498 168.48 9.24979 168.51 10.2698 168.51C6.33979 155.81 12.3698 151.56 20.8198 149.87C21.0698 147.76 20.5898 145.66 20.3998 143.56C20.1998 141.31 20.1598 139.07 20.2298 136.82C20.3398 133.57 21.8898 131.04 24.2198 128.91C24.8298 128.36 25.2098 127.82 25.1598 126.9C24.3598 111.78 26.6598 97.19 32.5998 83.22C32.6598 83.07 32.6698 82.9 32.7298 82.62C30.9598 82.34 29.2098 82.15 27.4898 81.76C20.1698 80.11 14.4998 73.38 14.2798 65.96C14.1698 62.32 15.9798 59.37 18.3298 56.76C21.9298 52.77 26.2398 49.79 31.4598 47.85C26.7698 44.03 23.5398 39.46 23.2998 33.39C23.0698 27.58 24.5598 22.23 28.8598 17.84C25.0098 15.22 24.6198 11.33 24.6398 7.31002C24.6498 6.21002 24.8998 5.05002 26.6898 4.96002C26.4398 6.65002 26.2398 8.23002 26.6398 9.82002C27.1898 11.99 27.8298 14.06 29.7998 15.4C30.2098 15.67 30.6498 16.12 31.1698 15.77C34.2598 13.7 37.7498 12.7 41.3998 12.01C40.9698 9.23002 41.1698 6.62002 41.8198 4.04002C42.0898 2.99002 42.5698 2.03002 43.3698 1.29002C43.7298 0.960021 44.1298 0.440021 44.6598 0.860021C45.1698 1.26002 44.8198 1.73002 44.5598 2.20002C42.8998 5.26002 43.2098 8.45002 43.7898 11.61C47.7198 12.26 51.5498 12.53 55.2498 14.09C55.3998 12.9 55.5098 11.76 55.6998 10.63C56.0098 8.80002 56.7098 7.17002 58.3298 6.10002C58.7298 5.83002 59.2198 5.41002 59.6598 5.97002C59.9898 6.39002 59.7498 6.83002 59.3898 7.16002C56.8998 9.41002 57.4598 12.38 57.4598 15.22C57.4598 15.87 57.9498 16.21 58.3498 16.59C70.1298 27.83 63.1998 46.43 49.8098 50.04C45.5798 51.18 41.4598 51.74 37.1798 50.68C36.4398 50.5 35.7398 50.65 35.0298 50.89C30.8298 52.32 27.0298 54.48 23.6198 57.3C21.8398 58.77 20.6198 60.65 19.8398 62.8C18.1298 67.51 20.2098 72.08 25.2798 74.82C28.2198 76.41 31.4598 76.83 34.6998 77.25C35.4498 77.35 35.7798 76.93 36.1298 76.35C45.4398 61.22 59.1298 53.91 76.7598 53.69C80.9798 53.64 85.2098 53.59 89.4298 53.68C106.84 54.04 120.38 61.32 129.61 76.25C129.94 76.78 130.17 77.35 130.97 77.25C134.89 76.75 138.75 76.2 142.1 73.77C148.24 69.31 147.47 63.28 143.63 58.85C140.05 54.72 135.21 52.35 130.06 50.68C128.73 50.25 127.41 51 126.07 51.13C114.68 52.25 102.52 45.71 101.45 31.38C101.05 25.97 102.99 21.21 106.77 17.26C108.87 15.06 109 10.27 107.04 7.86002C106.79 7.55002 106.49 7.29002 106.24 6.99002C105.97 6.66002 105.84 6.28002 106.15 5.92002C106.48 5.54002 106.85 5.74002 107.21 5.94002C108.97 6.96002 109.71 8.63002 110.06 10.5C110.28 11.65 110.36 12.83 110.51 14.08C114.16 12.49 118.05 12.28 121.95 11.6C122.38 9.77002 122.4 7.90002 122.35 5.98002C122.31 4.12002 121.05 2.62002 120.9 0.74002C123.84 1.39002 125.21 5.97002 124.4 11.85C125.28 12.49 126.4 12.42 127.4 12.67C129.66 13.24 131.84 14.01 133.76 15.31C134.84 16.04 135.59 15.84 136.43 15.07C138.88 12.82 139.35 9.86002 139.38 6.76002C139.39 6.16002 138.63 5.31002 139.57 5.04002C140.56 4.76002 140.84 5.80002 141.06 6.53002C142 9.67002 140.2 15.19 137.61 17.27C137.44 17.41 137.28 17.56 136.97 17.83C141.19 22.19 142.75 27.57 142.49 33.44C142.23 39.46 139.05 44.01 134.31 47.85C136.21 48.57 137.94 49.31 139.55 50.3C143.37 52.66 146.8 55.43 149.34 59.2C151.64 62.62 152.09 66.26 150.73 70.12C148.02 77.82 142.47 81.75 134.43 82.38C134.06 82.46 133.63 82.51 133.01 82.57Z" fill="#4A4A4A"/>
<path d="M90.2693 118.87C90.5393 118.84 90.8093 118.81 91.0793 118.77C96.0293 118.05 100.959 117.18 105.989 117.2C106.619 117.2 107.559 116.95 107.639 117.89C107.719 118.88 106.789 118.84 106.059 118.96C101.989 119.64 97.9693 120.53 94.0493 121.88C97.5593 121.48 101.039 120.89 104.539 120.47C108.049 120.05 111.569 119.61 115.129 119.65C115.789 119.66 116.639 119.73 116.629 120.63C116.629 121.56 115.769 121.29 115.199 121.35C111.459 121.78 107.719 122.21 103.979 122.64C100.569 123.03 97.1893 123.65 93.7493 123.7C92.9693 123.71 92.1693 123.66 91.4093 123.51C90.8193 123.4 90.1493 123.21 90.1493 122.39C90.1393 121.67 90.7093 121.5 91.2393 121.29C91.8693 121.04 92.4893 120.76 93.1093 120.5C91.4293 120.46 89.8293 120.83 88.1893 120.64C87.5793 120.57 87.0693 120.31 86.8993 119.72C86.7093 119.05 87.2193 118.68 87.7293 118.41C88.5693 117.96 89.4293 117.55 90.5493 117C89.5893 116.84 88.7293 117.11 88.5093 116.23C88.2693 115.27 89.1393 114.98 89.7393 114.65C91.6293 113.63 93.5693 112.67 95.4793 111.68C94.3393 111.74 93.2493 112.05 92.1393 112.11C91.1493 112.16 89.7393 112.87 89.2393 111.64C88.6893 110.28 90.1793 109.75 91.0893 109.21C95.6393 106.51 100.629 105.24 105.879 105.24C108.519 105.24 111.329 105.18 113.499 107.5C115.659 103.34 118.659 100.21 123.099 98.8601C127.349 97.5701 131.639 97.2701 135.879 99.6101C135.819 99.1201 135.819 98.8401 135.749 98.5801C134.329 93.0701 132.639 87.6501 130.189 82.5001C124.049 69.6101 114.359 60.9401 100.309 57.5601C90.9893 55.3201 81.4893 55.5701 72.0893 56.4901C55.6993 58.0901 43.7493 66.5501 36.2793 81.2401C33.8193 86.0701 32.0693 91.1801 30.6993 96.4201C30.4293 97.4301 29.9693 98.4201 30.0493 99.6001C34.2593 97.2401 38.5693 97.6001 42.8593 98.9101C47.2893 100.27 50.2093 103.48 52.3893 107.5C53.3893 106.43 54.4893 105.92 55.7393 105.68C59.7393 104.89 63.6793 105.26 67.5793 106.27C70.4193 107.01 73.1293 108.08 75.5693 109.75C76.2293 110.2 76.9693 110.7 76.6693 111.63C76.3593 112.58 75.4593 112.28 74.7793 112.22C73.3193 112.07 71.8793 111.82 70.1193 111.57C72.2493 112.67 74.0993 113.59 75.9193 114.57C76.5793 114.92 77.5193 115.17 77.3593 116.19C77.1993 117.19 76.1793 116.74 75.4593 117.1C76.2993 117.51 77.0393 117.87 77.7793 118.24C78.3793 118.54 79.1393 118.83 78.9593 119.67C78.7793 120.53 77.9893 120.7 77.2193 120.66C75.7393 120.59 74.2593 120.48 72.5193 120.36C72.9493 120.58 73.1493 120.66 73.3293 120.78C74.1493 121.33 75.8693 121.1 75.6293 122.49C75.3793 123.96 73.7893 123.59 72.6593 123.71C72.4893 123.73 72.3193 123.72 72.1493 123.71C68.8793 123.62 65.6593 123.09 62.4293 122.7C58.3593 122.21 54.2793 121.79 50.1993 121.35C49.7393 121.3 49.2593 121.28 49.1993 120.68C49.1493 120.11 49.5693 119.86 50.0193 119.77C50.5693 119.66 51.1393 119.61 51.6893 119.64C55.6693 119.87 59.6493 120.18 63.5993 120.78C66.3193 121.19 69.0293 121.59 71.7493 121.99C67.8093 120.55 63.7793 119.61 59.6793 118.96C58.9893 118.85 58.1593 118.82 58.2093 117.95C58.2693 116.99 59.1793 117.24 59.8193 117.21C60.2693 117.19 60.7193 117.21 61.1693 117.22C66.0093 117.36 70.7593 118.23 75.5693 118.79C75.1693 118.53 74.7493 118.32 74.2993 118.17C70.0293 116.75 65.6593 115.75 61.1893 115.22C60.5293 115.14 59.6693 115.2 59.7393 114.25C59.7993 113.39 60.6193 113.52 61.2093 113.57C63.0593 113.72 64.8993 113.91 66.7393 114.11C68.9093 114.34 71.0793 114.61 73.2393 114.86C69.8993 112.95 66.3593 111.78 62.6393 111.19C62.1293 111.11 61.5293 111.15 61.5193 110.46C61.5093 109.7 62.1693 109.81 62.6493 109.83C64.4993 109.88 66.3493 109.82 68.2093 110.01C70.2693 110.21 72.3293 110.51 74.4093 110.66C70.7193 108.45 66.6893 107.25 62.4893 106.97C58.8193 106.73 54.7393 105.73 52.2193 109.77C52.0093 109.68 51.8593 109.67 51.8093 109.59C51.1893 108.73 50.5493 107.87 49.9693 106.98C46.3193 101.35 41.0993 98.9301 34.4693 99.3601C32.3993 99.5001 29.3793 101.63 29.0893 103.25C28.6993 105.41 28.3593 107.58 28.0193 109.75C27.0893 115.74 27.4593 121.77 27.3993 127.79C27.3893 128.82 27.1793 129.48 26.2493 130.14C24.1293 131.66 22.8293 133.72 22.5193 136.47C22.1093 140.05 22.8193 143.54 23.0493 147.06C23.3593 151.68 23.4193 151.55 18.9993 152.46C14.2993 153.43 10.4493 156.33 11.1293 162.22C11.3893 164.42 12.0593 166.5 12.6093 168.62C13.0493 170.32 12.3793 171.11 10.6393 170.95C9.68932 170.87 8.73931 170.64 7.78931 170.66C3.73931 170.75 1.31932 174.76 3.27932 178.16C4.24932 179.85 5.59932 181.35 7.46932 181.93C12.9493 183.62 18.2193 186.05 23.8693 187.06C30.3993 188.23 36.9993 188.95 43.6493 189.19C50.3393 189.43 57.0193 190.17 63.7193 190.1C73.2793 190 82.8293 189.22 92.4093 189.82C101.919 190.42 111.419 189.77 120.919 189.26C128.289 188.86 135.639 188.28 142.869 186.84C148.169 185.78 153.129 183.53 158.289 181.94C160.169 181.36 161.499 179.87 162.499 178.19C163.979 175.69 163.239 173 160.759 171.49C159.099 170.48 157.369 170.54 155.539 170.87C153.419 171.26 152.729 170.42 153.279 168.32C153.709 166.69 154.219 165.07 154.519 163.42C155.549 157.84 152.869 153.8 147.349 152.52C146.639 152.35 145.909 152.26 145.189 152.15C142.889 151.81 142.389 151.25 142.569 148.94C142.799 145.97 143.149 143.01 143.389 140.03C143.689 136.21 143.079 132.63 139.719 130.26C138.609 129.47 138.389 128.68 138.399 127.48C138.489 119.65 138.549 111.83 136.859 104.11C136.379 101.92 133.989 99.5701 131.709 99.3801C129.569 99.2101 127.449 99.3201 125.339 99.8301C120.489 101 117.439 104.34 114.889 108.33C114.549 108.87 114.389 109.62 113.389 109.74C112.349 107.08 109.929 106.97 107.559 106.82C104.099 106.6 100.729 107.13 97.4093 108.09C95.2793 108.71 93.1593 109.33 91.3593 110.72C95.2093 110.11 99.0493 109.72 102.939 109.82C103.449 109.83 104.229 109.57 104.269 110.41C104.319 111.21 103.569 111.09 103.029 111.19C99.3293 111.84 95.7893 112.94 92.4893 114.76C92.9593 114.85 93.4093 114.85 93.8293 114.77C97.4193 114.07 101.079 113.96 104.709 113.57C105.259 113.51 105.959 113.46 106.059 114.21C106.179 115.07 105.449 115.13 104.819 115.22C103.209 115.46 101.589 115.62 99.9993 115.95C96.7193 116.65 93.3693 117.32 90.2693 118.87Z" fill="#D2ADE6"/>
<path d="M39.2697 15.61C38.5297 15.33 38.0197 15.63 37.5097 15.8C30.9697 17.97 27.3297 22.45 26.4997 29.32C25.3197 39.21 33.1697 46.74 39.3897 48.18C48.5297 50.3 58.8897 44.3 61.0197 34.77C62.9897 25.98 57.6397 16.92 48.9297 14.93C47.7297 14.66 47.0597 14.85 46.6797 16.11C44.1997 24.39 41.3697 32.58 41.4997 41.39C41.5097 41.9 41.5397 42.48 40.8597 42.58C40.1497 42.69 40.0597 42.05 39.9297 41.6C38.7197 37.44 37.8497 33.22 37.7697 28.87C37.6897 24.4 37.8797 19.93 39.2697 15.61Z" fill="white"/>
<path d="M126.64 15.4901C128.9 24.2801 128.53 32.8501 125.99 41.3701C125.84 41.8801 125.81 42.64 125.08 42.59C124.19 42.53 124.37 41.7401 124.37 41.1401C124.4 32.2801 121.64 24.0201 119 15.7301C118.74 14.9201 118.32 14.6701 117.51 14.8401C114.76 15.4001 112.22 16.3901 110.14 18.3401C101.55 26.3701 102.7 39.3801 112.67 45.6401C117.92 48.9401 123.64 49.9001 129.38 47.09C136.88 43.42 140.49 35.9501 139.13 27.7301C138.1 21.4801 132.74 16.1501 126.64 15.4901Z" fill="white"/>
<path d="M17.9902 171.35C32.4202 172.13 46.7402 174.29 61.1702 174.65C75.6802 175.02 90.2002 175.02 104.7 174.65C119.14 174.28 133.45 172.13 148.05 171.11C147.6 172.37 146.73 172.5 145.95 172.69C142.45 173.55 138.84 173.73 135.28 174.17C127.3 175.15 119.31 175.95 111.28 176.43C100.48 177.07 89.6702 176.67 78.8702 176.75C72.7402 176.8 66.6002 176.85 60.4702 176.67C51.4202 176.4 42.4002 175.65 33.4202 174.48C29.3502 173.95 25.2702 173.53 21.2102 172.99C20.0402 172.83 18.7702 172.69 17.9902 171.35Z" fill="#4A4A4A"/>
<path d="M136.82 151.7C130.17 156.26 34.6195 156.21 29.0195 151.67C64.9595 153.74 100.89 153.76 136.82 151.7Z" fill="#4A4A4A"/>
<path d="M130.789 129.3C98.8393 133.74 66.9993 133.74 35.0693 129.3C35.5593 128.41 36.4193 128.25 37.3993 128.34C41.8793 128.72 46.3493 129.13 50.8293 129.47C55.3693 129.82 59.8993 130.14 64.4493 130.41C70.0593 130.75 75.6693 131.13 81.2893 131.27C85.1093 131.37 88.9393 131.17 92.7493 130.98C97.2893 130.75 101.829 130.34 106.369 130.09C112.879 129.74 119.369 129.18 125.839 128.46C126.839 128.35 127.859 128.32 128.869 128.3C129.699 128.29 130.399 128.54 130.789 129.3Z" fill="#4A4A4A"/>
<path d="M30.9297 124.83C32.0497 123.76 33.1897 123.73 34.2597 123.68C39.6697 123.43 45.0297 124.02 50.3997 124.55C56.5997 125.16 62.7897 125.86 68.9597 126.7C72.9097 127.24 76.8497 127.75 80.7997 128.33C84.0397 128.8 87.1697 127.94 90.3297 127.55C97.2897 126.69 104.23 125.68 111.21 124.99C117.86 124.33 124.49 123.43 131.2 123.67C132.43 123.71 133.64 123.82 134.7 124.57C134.38 125.3 133.79 125.02 133.36 125C126.59 124.55 119.91 125.62 113.22 126.32C106.02 127.08 98.8397 127.94 91.6497 128.78C89.2497 129.06 86.8697 129.41 84.4697 129.67C81.4197 130.01 78.4297 129.26 75.4297 128.94C69.3497 128.29 63.2897 127.44 57.2197 126.76C50.4097 126 43.5997 125.3 36.7597 124.84C34.9097 124.69 33.0897 125.27 30.9297 124.83Z" fill="#4A4A4A"/>
<path d="M107.32 82.34C106.45 83.64 105.57 84.79 104.49 85.76C103.87 86.31 104.05 87 104.09 87.65C104.31 91.44 103.86 95.07 101.41 98.18C101.06 98.62 100.71 99.07 100.29 99.44C98.6498 100.88 97.1298 100.71 95.8498 98.94C94.5898 97.19 93.9398 95.15 93.3298 93.04C86.4298 94.84 79.6198 94.89 72.7098 93.07C72.0298 94.02 71.9998 95.32 71.4298 96.4C71.0098 97.19 70.6498 98.03 70.1498 98.77C68.7998 100.79 67.0898 100.99 65.3798 99.25C63.2098 97.05 62.0898 94.33 61.8098 91.26C61.7998 91.2 61.7898 91.15 61.7998 91.09C62.3298 87.62 61.3598 84.72 58.4098 82.58C57.9498 83.19 57.4098 83.97 56.8198 84.71C54.9598 86.99 52.6198 88.39 49.6398 88.65C49.0598 88.7 48.4198 88.88 48.2998 88.11C48.1898 87.38 48.9498 87.41 49.3698 87.29C54.1698 86 56.7998 82.75 57.8798 78.04C58.2298 76.52 57.9698 75.15 57.1998 73.84C56.9498 73.42 56.5398 72.95 57.1498 72.52C57.6798 72.15 58.1398 72.52 58.5098 72.83C59.9298 74.01 60.3298 75.77 59.8198 77.28C58.7898 80.33 60.6198 81.93 62.3698 83.76C74.0698 96 94.5698 95.56 105.85 81.18C106.31 80.59 106.51 80.1 106.28 79.35C105.87 77.99 105.85 76.57 106.07 75.17C106.25 74.01 106.78 73.04 107.9 72.5C108.23 72.34 108.53 72.3 108.83 72.58C109.13 72.87 109.03 73.14 108.9 73.49C107.26 77.82 108.23 81.63 111.77 84.78C113.13 85.99 114.65 86.9 116.48 87.27C116.94 87.36 117.81 87.36 117.58 88.2C117.38 88.9 116.71 88.66 116.14 88.61C112.81 88.31 110.39 86.55 108.48 83.94C108.09 83.45 107.75 82.95 107.32 82.34Z" fill="#4A4A4A"/>
<path d="M62.9795 87.25C63.0595 88.56 63.0595 89.62 63.1995 90.66C63.5595 93.51 64.6095 96.07 66.5495 98.22C67.3795 99.14 68.1095 99.2 68.8195 98.07C69.7495 96.59 70.3795 94.97 70.8795 93.31C71.0195 92.83 71.1095 92.31 70.4695 92.03C67.7895 90.87 65.4395 89.15 62.9795 87.25Z" fill="white"/>
<path d="M102.86 87.41C101.08 88.61 99.4597 89.81 97.7297 90.83C94.4597 92.78 94.4397 92.74 96.0397 96.21C96.1097 96.36 96.1797 96.52 96.2697 96.66C96.7897 97.5 97.0196 98.83 98.1096 98.88C99.2396 98.93 99.7797 97.71 100.39 96.85C102.36 94.07 102.81 90.88 102.86 87.41Z" fill="white"/>
<path d="M67.7295 102.59C72.6595 105.18 76.8095 102.96 80.9795 100.8C82.2795 100.13 83.6295 100.09 84.9295 100.83C86.8895 101.94 88.9195 102.88 91.1295 103.38C93.3295 103.88 95.4695 103.98 97.4295 102.58C97.6295 102.44 97.8495 102.43 98.1695 102.7C98.2595 103.86 97.3095 104.3 96.4495 104.71C94.2995 105.74 92.0695 105.47 89.8595 104.91C88.3295 104.52 86.8495 103.97 85.5095 103.13C83.7395 102.01 82.0995 102.13 80.2895 103.14C77.1995 104.86 73.9195 105.99 70.2995 105.05C69.0695 104.73 67.9595 104.15 67.7295 102.59Z" fill="#4A4A4A"/>
<path d="M89.7194 85.17C87.8794 87.46 78.0194 87.47 76.1094 85.28C80.6494 85.67 85.1794 86.08 89.7194 85.17Z" fill="#4A4A4A"/>
</svg>
