<svg width="32" height="32" viewBox="0 0 32 32" fill="none" xmlns="http://www.w3.org/2000/svg">
<path d="M27.9998 4H3.99984C3.26346 4 2.6665 4.59695 2.6665 5.33333V9.33333C2.6665 10.0697 3.26346 10.6667 3.99984 10.6667H27.9998C28.7362 10.6667 29.3332 10.0697 29.3332 9.33333V5.33333C29.3332 4.59695 28.7362 4 27.9998 4Z" stroke="black" stroke-width="2" stroke-linecap="round" stroke-linejoin="round"/>
<path d="M5.33301 10.6666V25.3333C5.33301 26.0405 5.61396 26.7188 6.11406 27.2189C6.61415 27.719 7.29243 28 7.99967 28H23.9997C24.7069 28 25.3852 27.719 25.8853 27.2189C26.3854 26.7188 26.6663 26.0405 26.6663 25.3333V10.6666M13.333 16H18.6663" stroke="black" stroke-width="2" stroke-linecap="round" stroke-linejoin="round"/>
</svg>
