<svg width="24" height="25" viewBox="0 0 24 25" fill="none" xmlns="http://www.w3.org/2000/svg">
<path d="M9.88 10.38C9.58526 10.6547 9.34885 10.9859 9.18488 11.3539C9.02091 11.7218 8.93274 12.1191 8.92564 12.5219C8.91853 12.9247 8.99263 13.3248 9.14351 13.6984C9.2944 14.0719 9.51898 14.4113 9.80385 14.6962C10.0887 14.981 10.4281 15.2056 10.8016 15.3565C11.1752 15.5074 11.5753 15.5815 11.9781 15.5744C12.3809 15.5673 12.7782 15.4791 13.1462 15.3151C13.5142 15.1512 13.8454 14.9147 14.12 14.62M10.73 5.58C11.1512 5.5264 11.5754 5.49968 12 5.5C19 5.5 22 12.5 22 12.5C21.5526 13.4569 20.9919 14.3567 20.33 15.18" stroke="#4A4A4A" stroke-width="2" stroke-linecap="round" stroke-linejoin="round"/>
<path d="M6.61 7.11C4.6204 8.46368 3.02881 10.3246 2 12.5C2 12.5 5 19.5 12 19.5C13.9159 19.5051 15.7908 18.9451 17.39 17.89M2 2.5L22 22.5" stroke="#4A4A4A" stroke-width="2" stroke-linecap="round" stroke-linejoin="round"/>
</svg>
