<svg width="32" height="32" viewBox="0 0 32 32" fill="none" xmlns="http://www.w3.org/2000/svg">
<path d="M23.9998 28C23.9998 25.1711 22.876 22.458 20.8756 20.4576C18.8753 18.4572 16.1621 17.3334 13.3332 17.3334C10.5042 17.3334 7.79109 18.4572 5.7907 20.4576C3.79031 22.458 2.6665 25.1711 2.6665 28" stroke="black" stroke-width="2" stroke-linecap="round" stroke-linejoin="round"/>
<path d="M13.3332 17.3333C17.0151 17.3333 19.9998 14.3486 19.9998 10.6667C19.9998 6.98477 17.0151 4 13.3332 4C9.65127 4 6.6665 6.98477 6.6665 10.6667C6.6665 14.3486 9.65127 17.3333 13.3332 17.3333Z" stroke="black" stroke-width="2" stroke-linecap="round" stroke-linejoin="round"/>
<path d="M29.3332 26.6667C29.3332 22.1733 26.6666 18 23.9999 16C24.8765 15.3424 25.5774 14.4788 26.0407 13.4857C26.5039 12.4926 26.7153 11.4006 26.6559 10.3064C26.5966 9.21219 26.2685 8.14946 25.7005 7.21228C25.1326 6.2751 24.3424 5.49237 23.3999 4.93335" stroke="black" stroke-width="2" stroke-linecap="round" stroke-linejoin="round"/>
</svg>
